<svg width="156" height="156" viewBox="0 0 156 156" fill="none" xmlns="http://www.w3.org/2000/svg">
<path d="M126.959 18.2246C131.431 18.2246 137.495 19.9245 141.558 25.5723C143.751 28.544 145.136 32.2722 145.136 36.4004C145.136 37.3867 145.057 38.3579 144.91 39.3086C149.287 44.5481 152.304 51.1309 152.304 58.8008C152.304 68.5377 147.617 76.4676 141.6 82.4014L141.601 82.4023C141.589 82.4141 141.576 82.4248 141.564 82.4365C141.535 82.4651 141.508 82.495 141.479 82.5234L141.478 82.5225C140.875 83.1202 140.256 83.6965 139.623 84.252C140.878 87.59 141.552 91.1595 141.552 94.8965C141.552 101.214 139.73 107.067 136.778 112.267C133.818 117.483 129.801 121.892 125.14 125.598L125.118 125.614L125.098 125.631C120.29 129.427 114.821 132.251 108.934 134.277L108.935 134.278C102.435 136.608 95.539 137.648 88.4316 137.648C81.5465 137.648 74.6788 136.574 67.8779 134.555L67.7832 134.527L67.6885 134.498C64.9374 133.644 62.2275 132.695 59.5586 131.654C57.1903 132.779 54.7265 133.753 52.1924 134.592C46.3529 136.613 40.354 137.776 34.2871 137.776C27.3499 137.776 18.6641 136.299 12.0547 129.844L12.0527 129.846C7.19901 125.172 3.69531 118.722 3.69531 110.896C3.69535 103.447 6.69949 97.0264 11.2988 92.0732L11.4014 91.9629L11.5059 91.8545C13.4452 89.8433 15.5733 88.2378 17.8193 86.9863C15.8996 82.8974 15.0869 78.4777 15.0869 74.1602C15.087 69.9428 15.8573 65.869 17.1631 62.0107C19.1317 55.9748 22.5877 50.6704 26.7471 46.0488L26.8193 45.9678L26.8936 45.8877C31.473 40.937 37.0882 36.8298 43.3447 33.3887C49.9737 29.7428 57.4704 27.032 65.6113 25.0703L65.6318 25.0645L65.6533 25.0596C74.2835 23.0048 83.7126 22.0645 93.8076 22.0645C98.1838 22.0645 102.337 22.2538 106.234 22.6641L106.233 22.665C107.571 22.8027 108.888 22.9616 110.184 23.1396C111.38 22.4496 112.603 21.811 113.854 21.2334C117.775 19.4241 122.192 18.2247 126.959 18.2246Z" fill="white"/>
<path d="M139.552 94.8965C139.552 91.4034 138.923 88.0722 137.751 84.9561L137.264 83.6602L138.305 82.748C138.879 82.2446 139.439 81.7224 139.986 81.1826L140.195 80.9775L140.225 80.9482C145.793 75.4463 150.031 68.2954 150.291 59.6445L150.304 58.8008C150.304 51.6862 147.512 45.5432 143.375 40.5908L142.795 39.8965L142.934 39.0029C143.066 38.15 143.136 37.2806 143.136 36.4004C143.136 32.7292 141.906 29.4121 139.948 26.7598L139.941 26.75L139.934 26.7402C136.347 21.7543 130.98 20.2246 126.959 20.2246C122.532 20.2247 118.4 21.3384 114.692 23.0498C113.5 23.6 112.331 24.21 111.183 24.8721L110.59 25.2139L109.911 25.1211C108.637 24.9461 107.343 24.7895 106.028 24.6543L105.903 24.6406C102.6 24.2974 99.0984 24.114 95.416 24.0732L93.8076 24.0645C83.8404 24.0645 74.5772 24.9918 66.1348 27L66.1201 27.0049L66.0801 27.0146C58.0714 28.9445 50.7487 31.5986 44.3086 35.1406C38.1941 38.5036 32.763 42.4876 28.3613 47.2461L28.3604 47.2471L28.3115 47.2979L28.2402 47.3799L28.2334 47.3867C24.2106 51.8565 20.9258 56.9238 19.0645 62.6309L19.0615 62.6416L19.0576 62.6523C17.8124 66.3318 17.087 70.1885 17.0869 74.1602C17.0869 78.2314 17.8537 82.3537 19.6299 86.1367L20.4229 87.8252L18.793 88.7334C16.715 89.8912 14.7446 91.3773 12.9453 93.2432L12.8662 93.3242L12.7637 93.4336C8.46048 98.0678 5.69535 104.018 5.69531 110.896C5.69531 117.841 8.69054 123.634 12.9873 127.959L13.4521 128.413C19.5211 134.34 27.58 135.776 34.2871 135.776C40.0967 135.776 45.8737 134.663 51.5381 132.702L51.5508 132.697L51.5635 132.693C54.0269 131.878 56.4134 130.934 58.7002 129.848L59.4805 129.478L60.2852 129.791C62.9095 130.815 65.5738 131.748 68.2783 132.587H68.2793L68.3584 132.611L68.4326 132.633L68.4395 132.635L68.4473 132.638C75.0807 134.607 81.7566 135.648 88.4316 135.648L89.7246 135.637C95.7103 135.526 101.499 134.638 106.986 132.832L108.282 132.387C113.981 130.425 119.237 127.705 123.839 124.076L123.859 124.06L123.877 124.046L123.896 124.031C128.39 120.458 132.225 116.238 135.039 111.279C137.846 106.334 139.552 100.819 139.552 94.8965ZM147.136 36.4004C147.136 37.1823 147.09 37.9545 147.005 38.7148C151.321 44.132 154.304 50.913 154.304 58.8008L154.289 59.7725C154.012 68.9713 149.817 76.5563 144.405 82.3789L144.429 82.4023L143.015 83.8164C142.993 83.8382 142.975 83.8563 142.962 83.8682C142.961 83.8692 142.959 83.8701 142.958 83.8711C142.957 83.8724 142.956 83.8745 142.954 83.876C142.942 83.8888 142.911 83.92 142.877 83.9531L141.954 84.8555C142.997 88.0352 143.552 91.3989 143.552 94.8965C143.552 101.61 141.613 107.799 138.518 113.254C135.411 118.727 131.212 123.325 126.384 127.163L126.376 127.168L126.356 127.186L126.347 127.193L126.337 127.2C122.153 130.504 117.503 133.086 112.55 135.064L112.581 135.096L110.894 135.7C110.61 135.805 110.325 135.906 110.039 136.007L109.609 136.161C103.284 138.429 96.6235 139.509 89.7988 139.636L88.4316 139.648C81.3413 139.648 74.2869 138.542 67.3232 136.476L67.2285 136.449L67.21 136.443L67.1924 136.438L67.0977 136.409L67.0957 136.408C64.573 135.625 62.085 134.763 59.6309 133.825C57.4247 134.835 55.1487 135.719 52.8213 136.49L52.8203 136.489C46.8137 138.566 40.6022 139.776 34.2871 139.776C27.5997 139.776 19.0455 138.453 12.1221 132.604L12.0791 132.647L10.665 131.286C5.4955 126.308 1.69531 119.362 1.69531 110.896C1.69535 102.877 4.93757 95.9839 9.83301 90.7119H9.83398L9.93652 90.6016L9.94824 90.5879L9.96191 90.5752L10.0664 90.4658C11.6935 88.7785 13.4475 87.3557 15.29 86.1719C13.744 82.2631 13.0869 78.1528 13.0869 74.1602C13.087 69.6972 13.9022 65.4062 15.2686 61.3691C17.3446 55.0165 20.9655 49.4841 25.2539 44.7178L25.3262 44.6367L25.3389 44.6221L25.3525 44.6084L25.4268 44.5283C30.1836 39.3861 35.983 35.1556 42.3809 31.6367C49.1851 27.8945 56.8394 25.1303 65.0938 23.1377L65.1348 23.126L65.1885 23.1143L65.21 23.1094C74.0174 21.0144 83.5998 20.0645 93.8076 20.0645C98.2399 20.0645 102.464 20.256 106.443 20.6748L109.849 21.0332C110.883 20.4574 111.938 19.9149 113.017 19.417C117.149 17.5098 121.852 16.2247 126.959 16.2246C131.881 16.2246 138.643 18.0947 143.182 24.4043H143.181C145.601 27.6923 147.136 31.8242 147.136 36.4004Z" fill="#0D1B2A"/>
<g filter="url(#filter0_d_283_37)">
<path d="M34.2873 121.777C29.1673 121.777 25.4553 120.625 23.1513 118.321C20.8473 116.102 19.6953 113.627 19.6953 110.897C19.6953 107.995 20.8046 105.35 23.0233 102.961C25.3273 100.571 28.442 99.3766 32.3673 99.3766C33.6473 99.3766 34.9273 99.5046 36.2073 99.7606C38.8526 100.273 41.498 101.211 44.1433 102.577C46.874 103.942 49.434 105.137 51.8233 106.161C52.6766 106.587 53.5726 107.014 54.5113 107.441C55.45 107.867 56.3886 108.294 57.3273 108.721C60.2286 106.161 63.3006 102.875 66.5433 98.8646C69.786 94.7686 73.1566 90.2886 76.6553 85.4246C80.154 80.4753 83.738 75.4833 87.4073 70.4486C91.0766 65.3286 94.746 60.4646 98.4153 55.8566C102.17 51.1633 105.839 47.1099 109.423 43.6966C107.205 43.3553 104.773 43.0993 102.127 42.9286C99.5673 42.7579 96.794 42.6726 93.8073 42.6726C84.8473 42.6726 76.9967 43.4833 70.2553 45.1046C63.5993 46.7259 57.9246 48.8593 53.2313 51.5046C48.538 54.0646 44.826 56.8379 42.0953 59.8246C39.45 62.8113 37.658 65.6699 36.7193 68.4006C36.0366 70.6193 35.6953 72.454 35.6953 73.9046C35.6953 76.806 36.5913 78.982 38.3833 80.4326C40.2606 81.798 42.65 82.4806 45.5513 82.4806C48.3673 82.4806 51.5246 81.6699 55.0233 80.0486C58.522 78.4273 62.106 75.9099 65.7753 72.4966C69.4446 69.0833 72.8153 64.6886 75.8873 59.3126C76.314 58.5446 76.954 58.1606 77.8073 58.1606C78.4047 58.1606 78.9593 58.3739 79.4713 58.8006C79.9833 59.1419 80.2393 59.6539 80.2393 60.3366C80.2393 60.6779 80.1113 61.0619 79.8553 61.4886C76.442 67.3766 72.6873 72.1979 68.5913 75.9526C64.4953 79.7073 60.3993 82.4806 56.3033 84.2726C52.2073 86.0646 48.41 86.9606 44.9113 86.9606C40.9006 86.9606 37.5726 85.8513 34.9273 83.6326C32.3673 81.4139 31.0873 78.2566 31.0873 74.1606C31.0873 71.8566 31.514 69.4673 32.3673 66.9926C33.4766 63.5793 35.5673 60.1659 38.6393 56.7526C41.7966 53.3393 45.9353 50.2246 51.0553 47.4086C56.1753 44.5926 62.2766 42.3313 69.3593 40.6246C76.5273 38.9179 84.6766 38.0646 93.8073 38.0646C97.7327 38.0646 101.317 38.2353 104.559 38.5766C107.887 38.9179 110.959 39.3873 113.775 39.9846C116.079 38.1926 118.341 36.7846 120.559 35.7606C122.778 34.7366 124.911 34.2246 126.959 34.2246C127.727 34.2246 128.282 34.4806 128.623 34.9926C128.965 35.4193 129.135 35.8886 129.135 36.4006C129.135 36.9979 128.965 37.5526 128.623 38.0646C128.282 38.4913 127.727 38.7046 126.959 38.7046C124.911 38.7046 122.394 39.6433 119.407 41.5206C125.295 43.4833 129.562 46.0006 132.207 49.0726C134.938 52.1446 136.303 55.3873 136.303 58.8006C136.303 63.0673 134.298 67.1633 130.287 71.0886C126.362 75.0139 120.858 77.8726 113.775 79.6646C117.871 81.3713 120.858 83.59 122.735 86.3206C124.613 88.966 125.551 91.8246 125.551 94.8966C125.551 98.0539 124.655 101.211 122.863 104.369C121.071 107.526 118.511 110.427 115.183 113.073C111.941 115.633 108.058 117.681 103.535 119.217C99.0127 120.838 93.978 121.649 88.4313 121.649C83.226 121.649 77.8926 120.838 72.4313 119.217C69.9566 118.449 67.5246 117.595 65.1353 116.657C62.8313 115.803 60.5273 114.907 58.2233 113.969C55.1513 116.187 51.3966 118.022 46.9593 119.473C42.522 121.009 38.298 121.777 34.2873 121.777ZM73.7113 114.993C76.2713 115.761 78.746 116.315 81.1353 116.657C83.61 116.998 85.9566 117.169 88.1753 117.169C94.6607 117.169 100.335 116.017 105.199 113.713C110.063 111.494 113.861 108.678 116.591 105.265C119.407 101.851 120.815 98.4806 120.815 95.1526C120.815 93.19 120.261 91.3126 119.151 89.5206C118.127 87.7286 116.463 86.1926 114.159 84.9126C111.429 83.4619 108.314 82.4806 104.815 81.9686C101.317 81.4566 98.074 81.158 95.0873 81.0726C93.5513 80.902 92.7833 80.2193 92.7833 79.0246C92.7833 77.9153 93.594 77.1046 95.2153 76.5926C97.178 76.8486 99.098 76.9766 100.975 76.9766C106.863 76.9766 112.069 76.0806 116.591 74.2886C121.199 72.4966 124.826 70.1926 127.471 67.3766C130.117 64.4753 131.439 61.5313 131.439 58.5446C131.439 55.8139 130.117 53.2113 127.471 50.7366C124.911 48.2619 120.73 46.2993 114.927 44.8486C112.026 47.1526 109.039 50.0113 105.967 53.4246C102.895 56.7526 99.9513 60.4646 97.1353 64.5606C95.258 67.2059 92.8687 70.5766 89.9673 74.6726C87.1513 78.6833 84.0793 82.9499 80.7513 87.4726C77.5086 91.9953 74.2233 96.3046 70.8953 100.401C67.6526 104.497 64.666 107.91 61.9353 110.641C63.8126 111.494 65.7326 112.305 67.6953 113.073C69.7433 113.755 71.7486 114.395 73.7113 114.993ZM33.2633 117.297C36.4206 117.382 39.834 116.913 43.5033 115.889C47.1726 114.865 50.4153 113.499 53.2313 111.793C51.1833 110.854 49.1353 109.915 47.0873 108.977C45.0393 108.038 42.9913 107.142 40.9433 106.289C38.3833 105.094 36.4633 104.369 35.1833 104.113C34.7566 104.027 34.33 103.985 33.9033 103.985C33.4766 103.899 33.05 103.857 32.6233 103.857C30.0633 103.857 28.0153 104.582 26.4793 106.033C24.9433 107.483 24.1753 109.062 24.1753 110.769C24.1753 112.305 24.9006 113.713 26.3513 114.993C27.802 116.358 30.106 117.126 33.2633 117.297Z" fill="#0D1B2A"/>
</g>
<defs>
<filter id="filter0_d_283_37" x="3.69531" y="18.2246" width="148.608" height="119.553" filterUnits="userSpaceOnUse" color-interpolation-filters="sRGB">
<feFlood flood-opacity="0" result="BackgroundImageFix"/>
<feColorMatrix in="SourceAlpha" type="matrix" values="0 0 0 0 0 0 0 0 0 0 0 0 0 0 0 0 0 0 127 0" result="hardAlpha"/>
<feOffset/>
<feGaussianBlur stdDeviation="8"/>
<feComposite in2="hardAlpha" operator="out"/>
<feColorMatrix type="matrix" values="0 0 0 0 0.0509804 0 0 0 0 0.105882 0 0 0 0 0.164706 0 0 0 0.5 0"/>
<feBlend mode="normal" in2="BackgroundImageFix" result="effect1_dropShadow_283_37"/>
<feBlend mode="normal" in="SourceGraphic" in2="effect1_dropShadow_283_37" result="shape"/>
</filter>
</defs>
</svg>
